<?xml version="1.0" standalone="no"?>
<!DOCTYPE svg PUBLIC "-//W3C//DTD SVG 20010904//EN"
 "http://www.w3.org/TR/2001/REC-SVG-20010904/DTD/svg10.dtd">
<svg version="1.0" xmlns="http://www.w3.org/2000/svg"
 width="425.000000pt" height="425.000000pt" viewBox="0 0 425.000000 425.000000"
 preserveAspectRatio="xMidYMid meet">

<g transform="translate(0.000000,425.000000) scale(0.100000,-0.100000)"
fill="#000000" stroke="none">
<path d="M1825 3294 c-253 -25 -417 -58 -605 -120 -427 -142 -748 -386 -884
-675 -54 -113 -70 -187 -69 -314 2 -260 117 -511 326 -712 121 -116 203 -173
372 -259 302 -152 663 -239 1112 -266 733 -44 1428 209 1745 636 137 184 186
364 154 571 -58 385 -300 682 -721 885 -248 120 -549 201 -895 240 -101 11
-467 21 -535 14z m378 -275 c305 -85 506 -345 621 -806 90 -358 91 -486 5
-671 -119 -258 -363 -406 -638 -389 -179 12 -311 64 -425 168 -182 167 -294
429 -371 869 -30 173 -31 261 -6 362 67 259 267 450 515 489 73 11 216 1 299
-22z"/>
</g>
</svg>
