<?xml version="1.0" standalone="no"?>
<!DOCTYPE svg PUBLIC "-//W3C//DTD SVG 20010904//EN"
 "http://www.w3.org/TR/2001/REC-SVG-20010904/DTD/svg10.dtd">
<svg version="1.0" xmlns="http://www.w3.org/2000/svg"
 width="422.000000pt" height="720.000000pt" viewBox="0 0 422.000000 720.000000"
 preserveAspectRatio="xMidYMid meet">

<g transform="translate(0.000000,720.000000) scale(0.100000,-0.100000)"
fill="#000000" stroke="none">
<path d="M2305 6708 c-250 -95 -475 -587 -475 -1040 0 -176 30 -400 95 -700
l34 -158 -62 -57 c-137 -126 -437 -433 -501 -513 -482 -602 -559 -1227 -213
-1739 66 -98 191 -228 297 -307 92 -70 285 -170 390 -204 192 -61 442 -80 610
-47 41 9 78 12 81 9 3 -4 32 -133 65 -287 58 -276 59 -282 59 -440 -1 -181
-12 -241 -72 -363 -88 -180 -239 -262 -483 -262 -110 0 -184 17 -248 57 -66
41 -63 49 15 55 38 3 90 14 116 26 69 31 149 111 183 185 26 55 29 73 29 162
0 89 -3 106 -28 157 -39 79 -104 143 -185 181 -57 27 -78 31 -147 31 -69 0
-90 -4 -147 -31 -82 -39 -151 -105 -186 -181 -21 -46 -27 -75 -30 -148 -3 -81
0 -102 25 -176 104 -300 383 -476 696 -440 181 22 312 80 420 189 76 76 119
147 158 264 27 79 32 114 37 220 6 154 -2 210 -78 560 -33 150 -60 278 -60
284 0 7 19 21 43 31 63 29 188 126 246 193 110 127 193 288 244 471 17 61 20
105 21 240 0 153 -2 171 -27 245 -36 109 -88 193 -177 288 -94 100 -182 168
-285 217 -111 54 -197 73 -334 74 l-114 1 -67 309 -67 310 84 105 c279 349
463 716 534 1066 27 136 37 422 19 548 -41 290 -150 502 -305 592 -53 32 -158
43 -210 23z m270 -472 c62 -62 81 -300 37 -478 -45 -184 -150 -421 -239 -539
-56 -74 -295 -311 -304 -301 -13 15 -60 269 -71 390 -33 361 92 712 312 873
110 81 217 103 265 55z m-441 -2255 c31 -145 55 -265 53 -266 -1 -1 -35 -19
-76 -39 -147 -73 -261 -172 -348 -303 -243 -365 -143 -750 249 -957 97 -52
188 -89 188 -77 0 4 -36 38 -80 75 -152 128 -181 185 -188 361 -5 141 11 225
60 317 50 93 154 178 255 207 l30 9 126 -596 c89 -420 123 -599 115 -603 -29
-18 -155 -34 -268 -33 -254 2 -467 85 -641 251 -277 265 -383 664 -268 1008
55 165 99 224 419 570 117 127 236 256 264 287 27 32 51 56 52 55 1 -1 27
-121 58 -266z m398 -672 c29 -6 90 -28 136 -50 143 -66 245 -182 298 -339 29
-86 25 -258 -10 -373 -34 -114 -73 -191 -130 -253 -48 -54 -152 -131 -162
-121 -3 3 -60 254 -125 559 -66 304 -122 561 -125 571 -4 14 1 17 30 17 19 0
59 -5 88 -11z"/>
</g>
</svg>
